<svg xmlns="http://www.w3.org/2000/svg" viewBox="0 0 64 64" role="img" aria-label="BusinessLens">
<style>@media(prefers-color-scheme:dark){.d1{fill:rgb(242,238,229)}.d2{fill:rgb(242,238,229)}}</style>
<g transform="translate(-40.703 -33.868) scale(0.064521)">
  <rect x="1421.27" y="1224.3" width="118" height="118" rx="20" fill="rgb(206,82,49)"/>
  <path class="d1" transform="translate(0,0)" fill="rgb(27,23,19)" d="M 996.93 700.81 L 999.013 701.539 C 1001.67 707.699 1000.09 938.896 1000.4 966.035 C 987.851 978.57 917.419 1009.72 914.129 1018.98 C 918.798 1027.15 989.336 1054.8 998.712 1063.92 C 1001.59 1069.81 1000.34 1247.72 1000.39 1265.15 C 1000.39 1279.02 1000.57 1292.89 1000.92 1306.75 C 1001.16 1315.52 1001.88 1326.1 1001.16 1334.83 C 1000.92 1337.69 1000.28 1337.47 998.293 1338.72 C 992.993 1336.99 989.22 1333.84 984.388 1331.31 C 949.036 1312.8 912.8 1289.5 877.39 1271.7 C 875.789 1271.41 876.674 1271.71 875.36 1270.98 C 847.466 1255.38 819.155 1240.05 791.241 1224.51 C 769.57 1212.44 745.943 1201.43 725.102 1188.12 C 719.872 1178.63 722.259 1167.6 722.523 1156.89 C 722.781 1143.84 722.848 1130.79 722.725 1117.74 L 722.353 953.501 C 722.025 930.908 721.569 908.316 720.986 885.727 C 720.208 852.76 714.374 857.659 743.215 842.334 C 753.522 836.785 763.763 831.114 773.935 825.322 L 936.288 735.298 L 975.404 713.416 C 983.018 709.186 988.746 706.934 995.722 701.72 L 996.93 700.81 z M 902.183 1178.08 C 902.915 1176.94 904.575 1174.46 904.655 1173.09 C 905.935 1151.41 904.279 1126.9 904.458 1105.62 C 893.1 1098.84 833.041 1071.11 822.56 1070.01 C 817.37 1078.45 821.915 1118.58 819.855 1133.21 C 826.343 1142.54 872.729 1160.66 885.258 1168.95 C 886.112 1169.51 901.251 1177.78 902.183 1178.08 z M 819.844 914.027 C 820.288 922.38 819.845 963.887 821.323 967.865 C 823.794 969.406 822.43 969.104 825.342 969.192 C 832.842 967.539 889.39 935.819 900.717 930.768 C 902.551 929.95 909.064 925.216 910.423 923.118 C 911.707 921.189 912.041 916.988 912.018 914.673 C 911.864 898.786 911.458 882.872 911.823 867.088 C 911.891 864.176 907.14 863.234 905.126 862.855 C 884.051 877.997 833.028 897.813 819.844 914.027 z"/>
  <path class="d2" transform="translate(0,0)" fill="rgb(27,23,19)" d="M 1041.31 699.635 C 1048.63 699.456 1059.49 708.572 1066.41 712.453 C 1088.22 724.677 1110.29 736.694 1132.71 747.713 C 1137.92 750.273 1136.35 751.844 1137.8 757.707 C 1138.88 768.305 1138.27 779.337 1138.3 789.984 L 1138.5 853.492 L 1138.51 1059.95 L 1138.24 1129.4 C 1138.13 1138.84 1136.03 1171.22 1139.89 1176.96 C 1144.71 1178.41 1158.54 1169.58 1163.64 1166.77 C 1213.67 1139.14 1263.83 1111.76 1313.64 1083.74 C 1316.05 1082.38 1319.8 1080.78 1322.55 1081.31 C 1325.19 1087.14 1325.27 1176.49 1321.53 1187.11 C 1320.4 1190.31 1291.32 1207.03 1285.42 1208.84 C 1270.04 1218.03 1250.61 1227.85 1234.47 1236.85 L 1098.07 1312.01 C 1087.81 1317.62 1050.49 1340.29 1043.22 1342.3 L 1040.59 1340.59 C 1038.75 1331.82 1040 1294.93 1040.14 1284.32 L 1040.66 1190.52 L 1040.27 804.233 C 1040.26 793.183 1038.76 705.563 1041.31 699.635 z"/>
</g>
</svg>
